<svg width="83" height="38" viewBox="0 0 83 38" fill="none" xmlns="http://www.w3.org/2000/svg">
<path d="M51.7461 28.2711V21.2613L45.1305 8.5649H49.2125L53.576 17.6579L57.9113 8.5649H61.937L55.3495 21.2613V28.2711H51.7461ZM64.2455 28.2711V8.5649H67.8489L77.1108 22.4437V8.5649H80.7143V28.2711H77.1108L67.8489 14.4205V28.2711H64.2455Z" fill="#170F49"/>
<path d="M0.20752 16.0812C0.20752 7.62701 7.06097 0.77356 15.5151 0.77356V21.9191C15.5151 30.3733 8.66168 37.2268 0.20752 37.2268V16.0812Z" fill="#4A3AFF"/>
<path d="M17.7358 9.09159C17.7358 4.49767 21.46 0.77356 26.0539 0.77356C30.6478 0.77356 34.3719 4.49767 34.3719 9.09159V9.57184C34.3719 14.1658 30.6478 17.8899 26.0539 17.8899C21.46 17.8899 17.7358 14.1658 17.7358 9.57185V9.09159Z" fill="#4CBFFF"/>
<path d="M17.7358 28.4288C17.7358 23.8348 21.4599 20.1107 26.0539 20.1107C30.6478 20.1107 34.3719 23.8348 34.3719 28.4288V28.909C34.3719 33.5029 30.6478 37.227 26.0539 37.227C21.4599 37.227 17.7358 33.5029 17.7358 28.909V28.4288Z" fill="#962DFF"/>
</svg>
